<svg width="50" height="50" viewBox="0 0 50 50" fill="none" xmlns="http://www.w3.org/2000/svg">
<rect x="1" y="1" width="48" height="48" fill="white" stroke="black" stroke-width="2"/>
<path d="M11.8247 16.402H15.1467L16.7747 21.396L18.4027 16.402H21.7467L19.0847 23.662L20.6687 27.82L24.5847 16.38H28.5227L22.4287 32H19.3047L16.7747 25.884L14.2667 32H11.1207L5.04866 16.38H8.96466L12.9027 27.82L14.4427 23.662L11.8247 16.402ZM36.5898 32.132C35.3431 32.132 34.2798 31.9267 33.3998 31.516C32.5198 31.0907 31.8011 30.5187 31.2438 29.8C30.7011 29.0667 30.2978 28.238 30.0338 27.314C29.7845 26.3753 29.6598 25.3927 29.6598 24.366V16.38H33.2678V24.366C33.2678 24.9527 33.3265 25.5247 33.4438 26.082C33.5611 26.6247 33.7518 27.1087 34.0158 27.534C34.2798 27.9593 34.6171 28.2967 35.0278 28.546C35.4531 28.7953 35.9738 28.92 36.5898 28.92C37.2205 28.92 37.7485 28.7953 38.1738 28.546C38.5991 28.282 38.9365 27.9373 39.1858 27.512C39.4351 27.072 39.6185 26.5807 39.7358 26.038C39.8531 25.4953 39.9118 24.938 39.9118 24.366V16.38H43.5198V24.366C43.5198 25.4513 43.3805 26.4633 43.1018 27.402C42.8378 28.3407 42.4271 29.1693 41.8698 29.888C41.3125 30.592 40.5938 31.142 39.7138 31.538C38.8485 31.934 37.8071 32.132 36.5898 32.132Z" fill="black"/>
</svg>
